<?xml version="1.0" standalone="no"?>
<!DOCTYPE svg PUBLIC "-//W3C//DTD SVG 20010904//EN"
 "http://www.w3.org/TR/2001/REC-SVG-20010904/DTD/svg10.dtd">
<svg version="1.0" xmlns="http://www.w3.org/2000/svg"
 width="1140.000000pt" height="1280.000000pt" viewBox="0 0 1140.000000 1280.000000"
 preserveAspectRatio="xMidYMid meet">
<metadata>
Created by potrace 1.15, written by Peter Selinger 2001-2017
</metadata>
<g transform="translate(0.000000,1280.000000) scale(0.100000,-0.100000)"
fill="#673ab7" stroke="none">
<path d="M4789 12786 c-65 -17 -133 -60 -171 -108 -18 -22 -43 -52 -55 -65
-13 -13 -23 -32 -23 -42 0 -46 247 -237 418 -323 80 -40 122 -48 122 -24 0 8
14 18 32 21 140 31 248 127 248 221 0 194 -338 383 -571 320z"/>
<path d="M5818 12767 c-65 -25 -126 -66 -162 -110 -115 -140 -138 -372 -54
-536 43 -84 94 -122 173 -129 81 -7 158 34 277 146 51 48 113 102 138 118 219
150 455 168 734 55 129 -52 228 -108 497 -282 92 -59 203 -128 247 -154 l81
-47 73 26 c140 50 209 52 227 4 11 -31 2 -88 -14 -88 -8 0 -16 -20 -20 -52 -4
-29 -18 -91 -31 -137 -42 -145 -27 -242 43 -284 28 -16 39 -16 127 -5 178 22
310 -19 437 -139 153 -145 227 -296 389 -803 45 -140 86 -263 92 -273 8 -16
11 -16 31 -2 51 36 86 11 113 -82 9 -29 19 -53 24 -53 9 0 11 10 28 110 l8 45
44 -130 c156 -468 342 -781 616 -1044 70 -67 130 -121 134 -121 4 0 36 -35 72
-77 219 -260 368 -603 368 -848 0 -185 -76 -306 -225 -355 -97 -32 -146 -30
-245 13 -107 46 -181 51 -206 13 -14 -23 -14 -30 1 -88 9 -35 57 -141 107
-238 190 -362 234 -463 226 -525 -2 -23 -12 -31 -63 -51 -125 -51 -195 -127
-195 -213 0 -82 56 -180 230 -406 78 -100 78 -103 -15 -104 -137 -1 -208 86
-291 359 -68 224 -104 301 -174 364 -23 21 -54 42 -70 47 -25 9 -28 16 -33 72
-8 82 -39 181 -76 240 -32 49 -87 85 -115 74 -48 -19 -67 -131 -43 -255 l14
-73 -25 -19 c-157 -124 -397 107 -557 535 -72 194 -90 311 -86 565 3 138 -18
218 -77 295 -134 176 -408 131 -478 -77 -22 -68 -15 -209 16 -293 12 -33 28
-100 36 -149 36 -232 150 -316 287 -212 l42 32 0 -120 c0 -96 5 -138 23 -201
55 -191 184 -404 401 -663 33 -41 61 -78 61 -83 0 -15 -43 -10 -101 10 -30 11
-140 55 -246 99 -291 123 -390 148 -433 114 -24 -19 -24 -19 -6 -65 9 -25 39
-77 66 -115 47 -67 50 -69 99 -75 60 -7 108 -31 178 -87 104 -83 238 -277 274
-398 11 -37 10 -45 -4 -59 -15 -16 -19 -16 -50 -1 -18 9 -68 43 -110 77 -143
114 -218 150 -252 121 -25 -21 -15 -138 20 -222 6 -15 -1 -14 -50 8 -96 44
-255 44 -255 1 0 -30 96 -98 208 -148 l64 -29 36 36 c26 26 37 32 43 22 5 -7
9 -18 9 -24 0 -14 134 -247 168 -293 15 -20 60 -73 100 -119 139 -157 183
-252 149 -319 -21 -39 -83 -95 -194 -173 -85 -60 -95 -70 -123 -131 -65 -142
-91 -316 -71 -488 16 -138 55 -292 145 -571 41 -129 87 -278 101 -330 52 -196
68 -407 44 -549 -10 -56 -14 -63 -23 -47 -19 33 -68 86 -89 97 -53 29 -84 -86
-67 -243 18 -164 58 -281 120 -351 39 -45 101 -168 107 -215 8 -57 -15 -71
-141 -88 -113 -14 -161 -30 -212 -69 l-32 -25 -104 50 c-171 83 -184 68 -83
-100 123 -204 165 -319 151 -412 -7 -44 -39 -108 -54 -108 -5 0 -21 22 -35 48
-41 76 -103 148 -143 167 -34 16 -39 16 -70 1 -63 -29 -103 -144 -113 -326
l-6 -105 -17 49 c-24 65 -66 136 -82 136 -21 0 -36 -45 -67 -200 -46 -230 -78
-318 -131 -368 l-25 -22 -32 62 c-63 121 -105 160 -146 138 -28 -15 -51 -55
-110 -193 -53 -126 -83 -177 -134 -230 l-36 -38 45 7 c25 4 88 18 140 31 52
14 138 36 190 49 355 86 699 279 1072 601 62 53 236 209 385 346 370 338 474
424 588 481 114 58 210 142 275 243 42 64 106 200 98 209 -9 8 -28 -15 -52
-63 -14 -29 -31 -53 -38 -53 -7 0 -9 17 -4 53 3 28 9 95 12 148 l7 95 -66 73
c-83 92 -127 172 -108 195 18 22 47 20 106 -8 60 -28 116 -72 157 -123 l31
-38 -7 115 c-7 140 -32 259 -86 421 -55 162 -70 246 -70 388 0 178 26 292 101
442 104 208 283 364 522 453 166 63 226 140 227 292 0 128 -59 265 -158 367
-99 102 -196 117 -238 36 -13 -26 -14 -41 -5 -93 14 -79 14 -162 1 -187 -6
-10 -20 -19 -31 -19 -43 0 -163 152 -289 365 -30 50 -87 125 -130 170 -119
125 -148 210 -95 274 44 51 101 66 260 66 99 0 161 -5 213 -18 268 -64 460
-185 528 -331 19 -41 24 -67 24 -137 0 -63 -4 -90 -14 -99 -8 -6 -13 -17 -11
-23 2 -7 6 -25 10 -41 3 -15 9 -26 12 -22 3 3 16 -16 29 -43 25 -54 47 -71 94
-71 138 0 375 294 441 549 18 67 20 95 14 241 -24 651 -94 1208 -216 1720 -34
143 -50 202 -119 425 -27 88 -61 201 -75 250 -65 219 -189 416 -399 634 -39
40 -168 162 -286 271 -353 324 -484 469 -593 659 -64 111 -63 110 -103 284
-158 698 -424 1273 -800 1732 -112 137 -326 344 -459 442 -226 168 -516 314
-690 347 -153 29 -298 71 -645 186 -346 115 -573 179 -733 206 -132 22 -411
29 -459 11z m4919 -5877 c85 -42 184 -149 244 -266 73 -139 120 -281 209 -631
23 -90 57 -209 75 -265 29 -87 35 -117 35 -195 0 -92 -5 -123 -21 -123 -14 0
-35 84 -89 357 -29 142 -55 264 -59 271 -5 8 -30 15 -59 17 -87 6 -175 62
-247 155 -124 161 -205 390 -221 625 l-7 98 39 -6 c21 -4 66 -20 101 -37z
m-976 -3104 c56 -84 82 -176 77 -279 -5 -127 -54 -207 -136 -223 -27 -5 -31
-3 -40 27 -23 72 -32 158 -32 299 0 132 14 236 36 272 9 14 49 -28 95 -96z
m-674 -419 c140 -72 237 -229 363 -587 81 -228 161 -407 191 -426 5 -3 9 -10
9 -16 0 -11 -30 6 -104 61 -105 78 -200 232 -311 506 -31 77 -80 185 -108 239
-49 97 -154 242 -183 253 -7 3 -14 9 -14 13 0 13 101 -15 157 -43z"/>
<path d="M3335 12449 c-91 -12 -260 -53 -355 -86 -82 -28 -264 -112 -293 -135
-18 -14 -18 -15 1 -48 35 -60 55 -148 49 -213 -13 -140 -114 -259 -382 -449
-189 -134 -215 -154 -298 -236 -45 -43 -79 -88 -100 -131 -28 -58 -32 -75 -32
-146 1 -66 6 -91 29 -142 16 -35 30 -63 32 -63 2 0 36 25 75 55 176 136 421
255 526 255 56 0 93 -40 93 -99 0 -23 -10 -35 -57 -66 -263 -173 -497 -422
-790 -839 -70 -101 -188 -269 -261 -373 -73 -105 -180 -249 -237 -321 l-105
-131 -11 -103 c-28 -263 -126 -505 -322 -798 -38 -58 -140 -199 -226 -315
-296 -398 -433 -628 -565 -947 -125 -303 -138 -655 -36 -970 59 -179 167 -370
289 -508 147 -166 200 -273 301 -607 107 -353 162 -466 284 -588 52 -52 95
-83 161 -117 70 -36 98 -57 126 -95 55 -72 71 -111 76 -178 10 -122 -39 -203
-265 -438 -251 -261 -311 -354 -320 -492 -7 -107 37 -232 108 -310 11 -11 24
-42 30 -69 14 -65 34 -100 89 -159 112 -121 305 -213 672 -322 47 -14 94 -31
105 -39 17 -13 16 -15 -21 -21 -22 -4 -69 -23 -105 -41 -162 -84 -205 -168
-141 -279 39 -69 126 -148 334 -304 217 -162 299 -232 364 -313 63 -79 91
-134 107 -211 l12 -60 22 34 c26 43 66 178 83 284 7 44 13 152 13 240 0 228
-32 345 -104 375 -59 24 -146 -41 -240 -182 -38 -58 -39 -58 -54 -36 -23 32
-20 117 5 180 32 82 137 232 249 356 85 94 104 111 117 101 11 -10 16 -10 23
1 4 7 6 19 4 25 -10 25 210 208 406 338 58 38 153 93 211 121 l107 52 -50 18
c-63 22 -98 56 -98 94 0 84 157 221 415 365 l100 55 110 -5 c95 -5 118 -2 169
16 138 48 238 130 468 378 122 132 188 195 243 232 42 28 84 51 92 51 9 0 -16
-29 -54 -64 -158 -147 -260 -352 -318 -641 -13 -66 -40 -237 -60 -380 -57
-416 -95 -584 -175 -762 -28 -62 -36 -72 -63 -77 -84 -16 -183 -80 -213 -138
-60 -116 60 -323 239 -413 150 -75 261 -33 283 106 l7 44 11 -44 c6 -25 16
-46 23 -48 16 -6 38 40 53 112 16 73 31 105 23 50 -2 -22 0 -76 6 -120 19
-136 54 -158 127 -79 92 99 193 361 202 526 4 93 4 97 -21 122 -34 34 -62 33
-133 -4 -31 -17 -60 -27 -63 -22 -3 4 -21 29 -39 56 -200 285 -202 827 -5
1296 88 208 237 440 283 440 56 0 74 -33 136 -247 73 -253 122 -322 209 -293
43 14 126 92 192 181 25 33 59 65 87 79 l45 25 28 -21 c72 -52 97 -184 91
-472 -5 -196 -4 -204 16 -218 11 -8 35 -14 52 -14 91 0 133 154 154 565 12
226 15 235 73 279 21 16 32 18 45 10 30 -19 41 -79 52 -286 14 -289 42 -395
113 -438 l32 -20 7 90 c11 137 47 186 87 119 30 -49 45 -149 37 -250 -8 -109
4 -137 95 -225 77 -72 161 -124 249 -154 121 -41 189 -9 198 93 6 78 -13 158
-51 207 -273 357 -495 750 -424 750 21 0 104 -58 132 -93 15 -18 36 -48 49
-67 20 -32 27 -35 67 -34 36 0 69 15 189 84 189 109 303 161 479 220 79 27
149 54 154 59 6 6 13 51 15 99 8 166 -60 347 -200 533 -80 106 -198 208 -301
261 -52 27 -77 33 -159 38 -83 5 -102 10 -144 36 -70 43 -107 108 -112 195 -4
65 -3 70 26 99 25 25 39 30 77 30 25 0 64 -9 87 -20 23 -11 44 -17 47 -14 3 3
6 45 6 92 0 107 -22 161 -93 231 -92 88 -210 139 -539 230 -238 66 -330 102
-386 152 -74 65 -84 138 -32 237 40 77 32 74 120 45 46 -14 106 -26 142 -27
53 -1 65 3 88 24 24 22 27 31 23 80 -7 103 -100 264 -235 410 -102 110 -190
172 -253 178 -44 4 -50 2 -66 -24 -14 -21 -20 -50 -21 -113 -3 -110 -25 -185
-68 -228 -51 -51 -96 -43 -253 50 -219 129 -315 152 -416 103 -31 -15 -65 -39
-76 -53 l-20 -26 -48 18 c-116 44 -191 121 -224 228 -18 60 -20 86 -15 191 7
149 28 237 142 587 94 289 135 441 135 506 0 32 5 45 19 53 32 17 144 12 214
-10 123 -38 201 -100 482 -384 268 -271 359 -349 480 -409 104 -52 184 -70
282 -64 146 9 214 60 192 143 -22 79 -190 213 -334 267 -59 22 -60 22 -25 25
99 10 249 -32 565 -158 253 -101 358 -135 469 -151 141 -21 260 15 352 106 91
91 91 90 -49 90 -113 1 -129 3 -207 33 -101 38 -195 95 -403 240 -157 110
-297 190 -376 213 l-43 13 5 56 c13 152 101 185 274 105 125 -58 249 -144 606
-422 319 -249 342 -254 248 -59 -179 370 -516 710 -877 886 -204 99 -362 139
-580 147 -224 8 -427 -33 -537 -107 -214 -144 -517 -192 -828 -129 -174 35
-442 140 -504 198 -101 94 -223 125 -579 146 -310 18 -382 39 -421 120 -27 59
-16 138 38 275 63 162 81 254 80 425 -1 201 -45 352 -125 433 -96 100 -210 86
-361 -42 l-65 -56 -35 40 c-99 108 -39 226 246 488 178 164 222 210 264 274
15 24 45 62 66 86 40 45 67 97 67 131 0 60 -107 123 -275 162 -55 12 -104 26
-109 30 -16 14 69 28 389 63 553 61 768 108 991 216 275 133 339 317 200 575
-50 92 -87 123 -226 181 -109 45 -201 71 -320 89 -103 16 -323 18 -435 4z m79
-4035 c25 -25 19 -76 -15 -127 -36 -54 -85 -95 -160 -134 -47 -24 -66 -28
-142 -28 -92 0 -100 4 -113 53 -12 43 6 93 50 140 36 38 57 49 142 78 113 37
211 45 238 18z m521 -590 c133 -34 231 -113 256 -207 21 -79 -28 -292 -105
-452 -69 -143 -151 -253 -295 -395 -130 -128 -229 -208 -536 -429 l-210 -152
-40 44 c-115 125 -186 386 -172 631 10 168 56 284 126 314 l38 16 -26 56 c-15
33 -27 79 -29 115 -3 53 -1 63 20 82 51 48 161 47 413 -3 170 -34 329 -43 373
-20 17 9 36 25 42 35 12 23 13 101 2 116 -4 6 -42 31 -86 55 -89 51 -126 89
-126 130 0 30 14 43 75 67 44 17 210 16 280 -3z m258 -2695 c197 -98 516 -273
511 -280 -30 -49 -229 -62 -319 -21 -62 29 -86 51 -138 127 -22 33 -62 89 -89
124 -70 93 -65 100 35 50z m-1056 -1025 c219 -45 452 -168 477 -251 22 -71
-175 -109 -322 -63 -87 27 -181 27 -216 -1 -36 -28 -35 -73 5 -132 29 -44 127
-127 177 -150 31 -14 28 -26 -13 -43 -84 -35 -183 -8 -259 71 -46 47 -116 172
-116 207 0 10 -11 41 -25 67 -36 71 -59 163 -51 203 7 40 50 85 92 98 47 14
169 11 251 -6z m-359 -659 c104 -43 120 -126 52 -264 -23 -44 -109 -172 -192
-283 -83 -112 -165 -223 -181 -248 -16 -25 -27 -37 -24 -28 80 234 113 454
104 678 -3 74 -9 143 -13 154 -7 18 -2 18 102 14 71 -3 124 -11 152 -23z"/>
<path d="M6071 12002 c-27 -27 -31 -37 -31 -87 0 -166 159 -408 322 -490 56
-28 82 -35 128 -35 54 0 61 3 108 45 129 116 135 256 15 386 -89 95 -256 190
-285 161 -7 -7 -28 -2 -64 15 -30 13 -78 27 -108 30 -51 5 -57 4 -85 -25z"/>
<path d="M7582 11049 c-38 -8 -91 -55 -118 -104 -17 -33 -17 -35 1 -54 21 -24
38 -26 54 -7 9 11 21 11 76 -2 74 -16 124 -10 150 18 24 26 12 69 -29 109 -38
37 -85 51 -134 40z"/>
<path d="M7957 10550 c-46 -40 -77 -122 -84 -220 -13 -191 67 -355 206 -420
l51 -23 25 23 c72 68 103 222 70 350 -23 92 -96 239 -136 277 -51 49 -88 52
-132 13z"/>
<path d="M8274 10027 c-37 -32 -44 -106 -16 -171 12 -25 25 -46 31 -46 17 0
81 141 81 179 0 63 -45 81 -96 38z"/>
<path d="M8521 9697 c-23 -61 -32 -149 -22 -216 28 -182 103 -311 376 -651
163 -203 270 -354 304 -429 l19 -45 6 35 c13 84 15 230 6 369 -18 269 -58 437
-145 615 -106 219 -248 326 -457 342 -76 6 -78 5 -87 -20z"/>
<path d="M9742 8563 c-58 -107 111 -460 329 -688 48 -49 112 -105 143 -124
l55 -33 40 31 c40 32 81 101 81 136 0 37 -42 105 -95 154 -30 27 -119 95 -197
152 -216 155 -281 227 -335 369 l-10 25 -11 -22z"/>
<path d="M8024 7351 c-74 -45 -135 -162 -170 -331 -28 -128 -25 -375 4 -492
22 -89 64 -183 102 -228 l22 -25 -8 30 c-41 173 -32 265 52 591 39 150 47 199
51 301 5 117 1 173 -15 173 -4 0 -21 -9 -38 -19z"/>
<path d="M7646 6142 c-3 -4 0 -28 6 -53 5 -24 11 -145 12 -269 2 -207 4 -233
28 -321 65 -239 187 -412 366 -519 67 -39 201 -95 209 -86 8 8 -26 170 -51
243 -29 86 -134 328 -192 445 -98 197 -265 470 -327 536 -32 33 -42 38 -51 24z"/>
<path d="M6928 5402 c-134 -70 -139 -209 -15 -399 59 -90 200 -235 302 -312
79 -59 266 -153 337 -170 62 -15 158 -14 158 0 0 21 -126 274 -184 369 -138
226 -345 437 -513 523 -30 16 -33 16 -85 -11z"/>
<path d="M8180 4183 c-41 -29 -59 -55 -76 -112 -29 -95 -5 -179 67 -230 57
-42 197 -68 214 -40 4 6 7 59 7 117 1 96 -2 113 -25 157 -51 101 -132 148
-187 108z"/>
<path d="M7990 3473 c-25 -9 -60 -46 -60 -63 0 -9 -13 -20 -32 -25 -36 -11
-76 -62 -85 -108 -4 -21 -10 -26 -22 -22 -41 16 -68 15 -99 -5 -112 -69 -193
-389 -163 -639 22 -174 80 -296 166 -347 25 -14 48 -25 50 -23 2 2 -3 31 -11
64 -27 118 -18 223 45 505 16 74 33 162 37 195 6 54 8 57 16 33 5 -16 13 -28
17 -28 11 0 76 143 91 200 22 80 20 77 40 50 22 -29 31 -23 85 54 45 66 51
119 16 147 -22 18 -60 23 -91 12z"/>
<path d="M4581 3251 c-12 -12 -21 -28 -21 -37 0 -36 27 -120 96 -294 86 -220
112 -304 122 -391 l7 -64 23 75 c31 106 42 179 42 295 0 111 -26 255 -59 329
-17 40 -28 50 -73 70 -84 37 -113 41 -137 17z"/>
<path d="M5219 3008 c-88 -122 -145 -225 -221 -398 -131 -295 -198 -583 -199
-846 -1 -150 9 -225 43 -332 24 -76 19 -83 57 75 36 151 70 189 104 119 9 -19
30 -95 48 -168 65 -276 90 -371 104 -397 l13 -26 12 30 c22 57 50 179 61 269
13 106 16 305 9 673 -3 144 -1 265 3 270 15 14 170 15 196 1 43 -23 64 -63 69
-128 l4 -60 34 0 c48 0 64 28 64 116 0 162 -109 460 -265 729 -29 50 -61 100
-71 113 l-19 23 -46 -63z"/>
<path d="M2960 2531 c-90 -28 -177 -107 -199 -181 -11 -37 -8 -219 5 -259 11
-35 75 62 109 166 14 43 27 60 73 95 97 75 138 153 93 178 -22 11 -45 12 -81
1z"/>
<path d="M6103 2445 c-75 -68 -128 -146 -161 -239 -22 -62 -26 -88 -26 -201
-1 -147 5 -182 80 -489 90 -366 99 -493 49 -697 -29 -119 -48 -166 -82 -201
-56 -58 -104 -32 -243 133 -56 66 -120 132 -142 147 -72 47 -126 30 -181 -58
l-22 -35 -13 85 c-7 47 -17 89 -22 94 -11 11 -14 0 -50 -214 -32 -193 -58
-289 -93 -341 -41 -61 -95 -48 -148 37 -18 29 -18 34 -4 75 20 57 22 108 4
120 -8 5 -34 6 -59 2 -115 -19 -151 -3 -165 75 -13 76 -114 192 -168 192 -34
0 -82 -62 -102 -132 -24 -82 -24 -229 0 -318 49 -189 161 -290 320 -290 52 0
65 -4 84 -24 13 -13 46 -35 74 -48 47 -21 65 -23 192 -22 143 2 191 10 516 85
153 36 163 13 39 -88 -38 -31 -67 -60 -65 -63 3 -4 18 -10 35 -13 23 -5 41 0
77 23 108 69 261 113 628 180 259 48 415 87 519 130 311 130 430 372 372 759
-15 97 -29 128 -46 101 -5 -8 -35 -91 -66 -185 -113 -338 -215 -483 -355 -509
-72 -13 -70 4 3 42 87 45 128 93 135 156 7 60 -1 89 -39 131 -53 61 -99 79
-212 82 l-98 2 -68 56 c-161 132 -300 355 -369 595 -66 225 -91 492 -73 752 7
89 10 163 9 165 -2 2 -31 -22 -64 -52z"/>
<path d="M10042 2399 c-6 -52 -15 -105 -19 -118 -10 -38 16 -15 38 33 21 47
24 108 6 150 -12 27 -13 23 -25 -65z"/>
<path d="M3488 2456 c-133 -47 -268 -136 -369 -244 -85 -90 -119 -159 -119
-244 0 -94 45 -157 163 -231 28 -18 28 -18 40 23 2 9 14 -6 30 -37 26 -50 59
-83 83 -83 56 0 146 168 231 430 33 102 70 196 90 227 18 28 38 72 45 97 11
40 10 47 -7 66 -25 28 -101 26 -187 -4z"/>
<path d="M2516 1358 c-62 -94 -105 -322 -87 -453 13 -92 43 -148 98 -184 133
-88 219 13 231 270 7 158 -24 306 -70 330 -27 14 -64 -28 -94 -106 l-23 -60 0
93 c-1 122 -21 162 -55 110z"/>
<path d="M2940 1247 c-90 -45 -159 -400 -132 -679 6 -68 18 -143 25 -168 l13
-45 8 40 c15 77 64 153 118 181 46 24 77 17 118 -24 41 -41 67 -108 77 -201
11 -99 25 -19 24 144 0 272 -88 637 -175 730 -37 39 -41 40 -76 22z"/>
<path d="M3728 1103 c-22 -21 -80 -90 -128 -153 -91 -120 -159 -190 -186 -190
-8 0 -22 16 -30 36 -13 32 -18 35 -42 29 -15 -3 -33 -13 -39 -22 -22 -29 -15
-131 13 -208 14 -38 27 -80 28 -92 0 -12 5 -25 10 -30 5 -5 7 -1 3 9 -8 22 7
32 22 14 8 -10 9 -16 1 -21 -30 -18 147 -267 255 -357 100 -85 163 -112 255
-113 87 0 135 22 207 97 l42 43 12 177 c13 200 7 533 -11 593 -13 44 -36 75
-55 75 -27 0 -79 -70 -126 -170 -86 -181 -114 -233 -124 -234 -25 -2 -13 130
26 285 19 79 17 129 -12 217 -20 62 -62 67 -121 15z"/>
</g>
</svg>
